<svg width="595.28" height="841.89" xmlns="http://www.w3.org/2000/svg"><title>Layer 1</title><g fill-rule="evenodd" clip-rule="evenodd" fill="#a50014"><path d="M206.776 15.548h.886c15.03 5.646 29.924 7.75 42.232 15.062 11.765 6.99 21.85 16.533 31.305 25.99 19.562 19.56 33.455 43.21 39.573 75.31 10.167 53.335-3.56 107.326-20.082 145.006-5.842 13.326-12.098 26.37-21.263 36.326 8.417-26.52 13.907-66.33 8.86-100.708-1.53-10.42-5.15-20.3-10.927-26.875 10.812 25.738 10.848 66.135 5.61 97.163-1.796 10.652-3.97 20.892-7.677 29.238-3.348-29.97-13.47-51.81-27.17-71.764-13.423-19.55-29.133-37.054-39.28-59.657-5.478-12.207-9.154-24.2-9.154-40.166 0-15.31 3.514-29.05 7.087-42.528 6.044-22.802 16.873-62.688 0-82.398zm47.548 146.484c1.684-.777 2.927-1.995 3.544-3.84 1.988-.417 2.31-2.115 3.84-2.657 5.25-1.86 12 3.604 16.538 3.25-1.922-3.3-3.78-8.678-5.907-11.814-1.213-8.304 5.686-10.89 7.678-16.832-5.57.238-9.68 1.938-15.652 1.772-4.743-3.493-6.448-8.244-10.632-12.11-1.86 4.932-1.154 12.432-4.134 16.244-4.563 1.935-9.784 3.21-13.88 5.61 3.866 3.21 10.996 4.342 13.584 8.27 1.69 2.567-.055 9.51.886 14.768 2.585.32 2.947-1.583 4.134-2.66zM547.883 146.97v5.61c-1.172 33.678-13.18 58.97-28.647 79.74-15.298 20.545-35.848 37.083-57.294 50.797-43.903 28.074-97.92 47.254-158.297 57.885l.147-1.292-.738-1.07c25.08-9.773 49.292-21.338 68.813-36.917 19.37-15.46 36.308-34.832 42.822-62.905-3.37 8.218-7.29 16.014-11.814 23.33-1.55 2.506-2.58 5.243-4.135 7.384-1.496 2.06-3.74 3.865-5.61 5.906-5.202 5.675-10.724 12.143-16.54 17.425-23.613 21.446-55.335 35.993-89.188 46.958 34.285-26.302 31.7-84.92 54.046-122.266 21.14-35.333 58.226-61.482 104.842-71.174 32.447-6.746 70.076-6.38 100.117-17.13.665 5.732 1.042 11.755 1.476 17.72zM419.12 214.305c-2.57 3.658-7.273 6.593-10.634 9.45-1.05.895-2.927 1.78-2.657 2.954 5.38 2.684 12.54.637 16.833 3.543 4.857 3.29 3.78 13.477 7.678 17.13 3.745-3.71 4.57-12.956 9.156-15.653 4.35-2.557 11.758.092 18.016-1.477-1.283-4.76-10.752-8.594-11.813-13.88-1.265-6.292 4.34-11.763 3.84-18.015-5.1 1.093-11.17 7.53-16.54 7.383-5.108-.138-12.086-9.156-15.947-9.154.536 6.058 2.01 11.18 2.066 17.72zM252.257 315.9c-9.413-22.044-22.948-41.213-39.87-56.705-7.63-6.984-15.383-13.142-25.103-17.72 7.357 8.938 18.402 16.334 27.17 25.103 17.14 17.14 31.033 37.423 38.984 64.678-14.348-17.64-35.13-27.157-58.18-35.145-23.305-8.075-47.64-13.84-67.04-25.988-28.576-17.89-48.083-45.542-64.973-74.718-2.78-4.804-5.846-9.71-8.565-14.767-2.718-5.057-5.137-10.492-8.27-15.357v-.59c21.297 9.977 51.716 6.472 79.445 10.336 25.95 3.617 46.8 12.132 63.496 25.99 16.545 13.73 28.374 31.08 39.575 49.91 11.09 18.644 21.39 38.476 25.398 63.792l-1.165.36-.9.82zm-104.252-98.346c-2.73 1.41-6.298.306-10.042 1.477.626 3.22 6.457 4.113 7.383 7.975.877 3.654-1.73 6.677-1.772 10.927 4.21-1.06 6.535-5.475 11.223-4.725 3.463.554 5.43 4.433 8.86 4.43-.61-3.623-2.002-6.464-1.772-10.927.923-1.333 2.347-2.85 3.84-4.134 1.348-1.163 3.725-2.295 3.248-3.544-3.386-1.32-6.808-.145-9.45-1.182-3.99-1.565-3.88-7.135-6.202-10.336-2.31 3.115-1.867 8.26-5.315 10.04zM523.37 284.3c.25-.056.278.114.296.294 6.255 20.83 1.946 41.108-6.793 54.34-8.765 13.272-23.515 22.524-40.165 26.876-27.844 7.278-65.372 2.384-86.827-7.383-7.698-3.505-15.07-7.37-19.49-13.29 18.706-6.913 43.14-7.487 67.926-7.68-18.432-6.88-48.87-1.81-66.45 3.25 9.863-6.45 20.372-14.022 33.668-18.015 13.52-4.06 28.528-5.838 44.005-7.678 31.367-3.73 60.192-7.573 73.83-30.715zm-75.014 59.656c4.316-2.436 9.488-.495 11.813 2.362-.464-5.975 2.505-8.52 6.2-10.336-5.06-.65-7.296-4.123-8.27-8.86-1.31 4.08-6.323 5.617-10.927 4.725 3.196 2.36 3.753 8.565 1.183 12.11zM241.92 349.27c-3.247-2.364-5.042-6.18-8.27-8.564-5.114-5.025-12.088-8.19-18.9-11.518-6.402-.895-12.458-1.942-19.196-1.772 17.05 4.706 33.528 9.984 41.642 23.626-26.25-6.523-54.654 4.87-77.672 9.45-23.03 4.158-48.503.34-65.563-6.792-1.137-1.225-2.865-1.86-4.725-2.362-2.55-2.274-6.232-3.416-8.564-5.907-2.524-2.2-5.898-3.55-7.087-7.087 35.905-2.797 56.806-25.74 92.734-28.647 16.063-1.3 29.465 2.523 41.642 7.678 10.234 4.334 21.27 11.08 28.055 19.492 2.262 2.806 5.168 7.03 5.905 12.405zm-70.88-19.49c3.36 1.785 4.694 3.776 4.727 8.86 1.817-2.168 6.924-3.406 9.746-1.183-1.794-4.02-.303-8.543 1.772-10.336-5.197.67-7.333-1.722-9.155-4.43-.372 4.355-3.292 6.16-7.09 7.09zM311.618 827.707H282.38c-73.57-6.38-123.46-34.457-161.84-75.604-19.105-20.482-34.572-43.594-46.367-71.766-11.246-26.86-18.68-58.824-17.72-98.936.9-37.604 9.87-66.87 22.445-93.324 12.507-26.31 28.822-48.092 48.73-67.63 19.533-19.172 43.118-35.924 70.583-48.14 27.777-12.35 60.02-20.672 98.346-20.672 37.563 0 70.358 8.946 97.46 21.264 27.695 12.59 51.102 28.067 70.878 47.843 29.736 29.737 52.03 64.31 63.496 109.864 3.76 14.932 7.103 32.625 7.384 51.092.604 39.712-6.53 70.782-18.016 98.345-21.878 52.506-60.41 95.086-111.93 121.973-26.012 13.576-58.12 23.19-94.21 25.694zm-18.015-320.73c-14.618 39.77-47.217 69.008-95.096 79.15 55.828 12.187 89.314 46.02 100.412 100.412 3.142-13 7.27-24.77 12.994-35.736 17.167-32.896 46.96-55.962 88.6-64.973-55.798-11.502-89.522-49.9-101.3-99.525-1.732 7.354-3.303 14.395-5.61 20.673z"/><g stroke="#000" stroke-width="1.562" stroke-linecap="round"><path d="M292.126 342.48c3.95-.613 7.75-1.816 11.666-2.77M254.915 322.69c-.348-2.576-1.01-5.128-1.756-7.612"/></g></g></svg>